# xmcd CD database file
#
# Track frame offsets:
#	150
#	19370
#	32755
#	49359
#	67736
#	89866
#	111530
#	125944
#	141119
#	157394
#	174206
#	197400
#
# Disc length: 2879 seconds
#
# Revision: 0
# Processed by: cddbd v1.5.2PL0 Copyright (c) Steve Scherf et al.
# Submitted via: CDex 1.51
#
DISCID=b60b3d0c
DTITLE=Tara Oram - Chasing The Sun
DYEAR=2008
DGENRE=Country
TTITLE0=Fly Girl 
TTITLE1=What Didn't Kill Me 
TTITLE2=538 Stars
TTITLE3=Don't Tell Me  
TTITLE4=Living The Dream
TTITLE5=Go To Bed 
TTITLE6=No Easy Way Out 
TTITLE7=Call You When I Get There
TTITLE8=Ain't Gonna Happen
TTITLE9=Taste Of The Good Life
TTITLE10=The Call
TTITLE11=Wildfire
EXTD=YEAR: 2008
EXTT0=
EXTT1=
EXTT2=
EXTT3=
EXTT4=
EXTT5=
EXTT6=
EXTT7=
EXTT8=
EXTT9=
EXTT10=
EXTT11=
PLAYORDER=
